<?xml version="1.0" encoding="utf-8"?>
<!-- Generator: Adobe Illustrator 24.3.0, SVG Export Plug-In . SVG Version: 6.00 Build 0)  -->
<svg version="1.1" id="Capa_1" xmlns="http://www.w3.org/2000/svg" xmlns:xlink="http://www.w3.org/1999/xlink" x="0px" y="0px"
	 viewBox="0 0 300 300" style="enable-background:new 0 0 300 300;" xml:space="preserve">
<style type="text/css">
	.st0{fill:#E20613;}
	.st1{fill:#E10A19;}
	.st2{fill:#FFFFFF;}
	.st3{opacity:0.76;}
	.st4{display:none;opacity:0.54;}
	.st5{fill:#C60C1E;}
	.st6{fill:#FFFFFF;stroke:#0C0C0C;stroke-width:4;stroke-miterlimit:10;}
	.st7{fill:none;}
	.st8{fill:#C60C1E;stroke:#F2F2F2;stroke-width:0.75;stroke-miterlimit:10;}
	.st9{fill:none;stroke:#000000;stroke-miterlimit:10;}
	.st10{fill:#030306;}
	.st11{fill:#030305;}
	.st12{fill:#040305;}
	.st13{fill:#FFFFFF;stroke:#FFFFFF;stroke-width:3;stroke-miterlimit:10;}
	.st14{fill:#25D366;stroke:#F2F2F2;stroke-width:5;stroke-miterlimit:10;}
	.st15{fill:none;stroke:#FFFFFF;stroke-width:3;stroke-miterlimit:10;}
	.st16{fill:#FFFFFF;stroke:#000000;stroke-miterlimit:10;}
	.st17{fill:none;stroke:#000000;stroke-width:3;stroke-miterlimit:10;}
	.st18{fill-opacity:0.2;}
	.st19{fill:url(#SVGID_1_);}
	.st20{fill:url(#SVGID_2_);}
	.st21{fill-rule:evenodd;clip-rule:evenodd;fill:#FFFFFF;}
	.st22{fill:url(#SVGID_3_);}
	.st23{fill:url(#SVGID_4_);}
	.st24{fill:url(#SVGID_5_);}
	.st25{fill:url(#SVGID_6_);}
	.st26{fill:url(#SVGID_7_);}
	.st27{fill:url(#SVGID_8_);}
	.st28{fill:url(#SVGID_9_);}
	.st29{fill:url(#SVGID_10_);}
	.st30{fill:url(#SVGID_11_);}
	.st31{fill:url(#SVGID_12_);}
	.st32{fill:url(#SVGID_13_);}
	.st33{fill:url(#SVGID_14_);}
	.st34{fill:#444444;}
	.st35{fill:url(#SVGID_15_);}
	.st36{fill:url(#SVGID_16_);}
	.st37{fill:url(#SVGID_17_);}
	.st38{fill:url(#SVGID_18_);}
	.st39{opacity:0.93;fill:#FFFFFF;}
	.st40{fill:#B3B3B3;}
	.st41{opacity:0.94;fill:#C60C1E;}
	.st42{opacity:0.94;fill:#1E1E1E;}
	.st43{opacity:0.49;fill:#1E1E1E;}
	.st44{fill:#1E1E1E;}
	.st45{fill:#231F20;stroke:#000000;stroke-width:2;stroke-miterlimit:10;}
</style>
<g>
	<path class="st44" d="M257.55,68.46c-3.43-3.43-7.49-5.15-12.19-5.15h-17.34v-13c0-5.96-2.12-11.06-6.37-15.3
		c-4.25-4.24-9.35-6.37-15.31-6.37h-8.67c-5.96,0-11.06,2.12-15.31,6.37c-4.25,4.24-6.37,9.35-6.37,15.3v13H124v-13
		c0-5.96-2.12-11.06-6.37-15.3c-4.24-4.24-9.35-6.37-15.31-6.37h-8.67c-5.96,0-11.06,2.12-15.31,6.37
		c-4.24,4.24-6.37,9.35-6.37,15.3v13H54.65c-4.7,0-8.76,1.72-12.19,5.15c-3.43,3.43-5.15,7.5-5.15,12.19v173.37
		c0,4.69,1.72,8.76,5.15,12.19c3.43,3.43,7.49,5.15,12.19,5.15h190.71c4.7,0,8.76-1.72,12.19-5.15c3.43-3.43,5.15-7.5,5.15-12.19
		V80.65C262.69,75.96,260.98,71.89,257.55,68.46z M93.65,254.02H54.65v-39.01h39.01V254.02z M93.65,206.35H54.65v-43.34h39.01
		V206.35z M93.65,154.33H54.65v-39.01h39.01V154.33z M90.61,92.37c-0.86-0.86-1.29-1.87-1.29-3.05V50.31c0-1.17,0.43-2.19,1.29-3.05
		c0.86-0.86,1.87-1.29,3.05-1.29h8.67c1.17,0,2.19,0.43,3.05,1.29c0.86,0.86,1.29,1.87,1.29,3.05v39.01c0,1.18-0.43,2.19-1.29,3.05
		c-0.86,0.86-1.87,1.29-3.05,1.29h-8.67C92.48,93.65,91.47,93.23,90.61,92.37z M145.67,254.02h-43.34v-39.01h43.34L145.67,254.02
		L145.67,254.02z M145.67,206.35h-43.34v-43.34h43.34L145.67,206.35L145.67,206.35z M145.67,154.33h-43.34v-39.01h43.34
		L145.67,154.33L145.67,154.33z M197.68,254.02h-43.34v-39.01h43.34V254.02z M197.68,206.35h-43.34v-43.34h43.34V206.35z
		 M197.68,154.33h-43.34v-39.01h43.34V154.33z M194.63,92.37c-0.86-0.86-1.28-1.87-1.28-3.05V50.31c0-1.17,0.43-2.19,1.28-3.05
		c0.86-0.86,1.87-1.29,3.05-1.29h8.67c1.18,0,2.19,0.43,3.05,1.29c0.86,0.86,1.28,1.87,1.28,3.05v39.01c0,1.18-0.43,2.19-1.28,3.05
		c-0.86,0.86-1.87,1.29-3.05,1.29h-8.67C196.51,93.65,195.49,93.23,194.63,92.37z M245.35,254.02h-39.01v-39.01h39.01V254.02z
		 M245.35,206.35h-39.01v-43.34h39.01V206.35z M245.35,154.33h-39.01v-39.01h39.01V154.33z"/>
</g>
<path class="st5" d="M105.2,94.5H90.8c-1.27,0-2.3-1.03-2.3-2.3V47.8c0-1.27,1.03-2.3,2.3-2.3h14.4c1.27,0,2.3,1.03,2.3,2.3v44.4
	C107.5,93.47,106.47,94.5,105.2,94.5z"/>
<path class="st5" d="M209.2,94.5h-14.4c-1.27,0-2.3-1.03-2.3-2.3V47.8c0-1.27,1.03-2.3,2.3-2.3h14.4c1.27,0,2.3,1.03,2.3,2.3v44.4
	C211.5,93.47,210.47,94.5,209.2,94.5z"/>
</svg>
