<?xml version="1.0" encoding="utf-8"?>
<!-- Generator: Adobe Illustrator 24.3.0, SVG Export Plug-In . SVG Version: 6.00 Build 0)  -->
<svg version="1.1" id="Capa_1" xmlns="http://www.w3.org/2000/svg" xmlns:xlink="http://www.w3.org/1999/xlink" x="0px" y="0px"
	 viewBox="0 0 250 150" style="enable-background:new 0 0 250 150;" xml:space="preserve">
<style type="text/css">
	.st0{fill:none;stroke:#000000;stroke-miterlimit:10;}
	.st1{fill:#FFFFFF;}
	.st2{fill:#E20613;}
	.st3{fill:#E10A19;}
	.st4{opacity:0.58;}
	.st5{fill:#FFFFFF;stroke:#FFFFFF;stroke-miterlimit:10;}
	.st6{fill:#8E8B8B;}
	.st7{stroke:#000000;stroke-miterlimit:10;}
	.st8{fill:#FFFFFF;stroke:#FFFFFF;stroke-width:0.25;stroke-miterlimit:10;}
</style>
<g>
	<path class="st0" d="M26.21,90.38c-0.02,0.01-0.03,0.01-0.03,0.01"/>
	<g>
		<path class="st2" d="M34.88,92.28h-7.29l0.11-6.06H15.85L10,92.28H2.37l24.79-26.12h10.02L34.88,92.28z M28.51,81.18l0.76-9.77
			l-9.19,9.77H28.51z"/>
		<path class="st2" d="M60.87,72.14h6.87l-9.89,20.13H40.2c-0.35,0-0.65-0.1-0.92-0.3c-0.27-0.2-0.48-0.45-0.63-0.76
			c-0.15-0.31-0.23-0.64-0.24-0.99c-0.01-0.35,0.06-0.68,0.21-0.99l8.4-17.08h6.53l-6.82,13.87c-0.25,0.51-0.18,0.82,0.2,0.93
			c0.38,0.11,0.87,0.17,1.47,0.17h5.11L60.87,72.14z"/>
		<path class="st2" d="M78.91,92.24c-0.85,0.09-1.69,0.17-2.53,0.23c-0.84,0.07-1.7,0.1-2.57,0.1c-0.74,0-1.47-0.03-2.2-0.1
			c-1.92-0.22-3.1-0.9-3.56-2.04c-0.46-1.14-0.2-2.69,0.77-4.65l4.43-9.01H68.4l2.28-4.64h4.97l2.73-5.56h6.53l-2.73,5.56h6.6
			l-2.28,4.64h-6.63l-3.78,7.68c-0.73,1.48-0.97,2.43-0.74,2.85c0.09,0.24,0.34,0.4,0.76,0.48c0.42,0.08,0.89,0.12,1.39,0.12
			c0.46,0,0.94-0.02,1.45-0.07c0.5-0.04,0.96-0.09,1.38-0.13c0.12-0.02,0.25-0.04,0.37-0.05c0.12-0.01,0.27-0.02,0.46-0.02
			L78.91,92.24z"/>
		<path class="st2" d="M89.74,76.88c0.22-0.44,0.47-0.87,0.77-1.29c0.3-0.42,0.7-0.84,1.21-1.26c0.58-0.49,1.21-0.87,1.87-1.16
			c0.66-0.29,1.33-0.5,2.03-0.65c0.69-0.14,1.39-0.24,2.11-0.28c0.71-0.04,1.41-0.07,2.1-0.07h6.25c0.67,0,1.33,0.02,1.99,0.07
			c0.66,0.04,1.26,0.14,1.8,0.28c0.54,0.14,1,0.36,1.38,0.65c0.38,0.29,0.62,0.67,0.73,1.16c0.11,0.44,0.1,0.87,0,1.27
			c-0.11,0.41-0.27,0.83-0.49,1.27l-5.26,10.7c-0.23,0.46-0.48,0.9-0.76,1.31s-0.67,0.82-1.18,1.24c-0.6,0.51-1.22,0.9-1.89,1.18
			s-1.35,0.49-2.04,0.65c-0.7,0.15-1.4,0.25-2.09,0.28s-1.38,0.05-2.05,0.05h-6.25c-0.69,0-1.37-0.02-2.04-0.07
			c-0.67-0.04-1.28-0.14-1.83-0.28c-0.55-0.14-1.02-0.36-1.39-0.65c-0.38-0.29-0.62-0.67-0.72-1.16c-0.11-0.4-0.1-0.81,0.01-1.22
			c0.11-0.42,0.28-0.85,0.5-1.29L89.74,76.88z M100.48,76.61c-0.62,0-1.27,0.06-1.94,0.18c-0.67,0.12-1.3,0.27-1.9,0.45
			c-0.42,0.15-0.76,0.39-1.01,0.69c-0.26,0.31-0.51,0.72-0.76,1.23l-2.99,6.09c-0.15,0.31-0.25,0.54-0.31,0.7
			c-0.05,0.16-0.04,0.31,0.05,0.46c0.13,0.24,0.34,0.43,0.61,0.55c0.28,0.12,0.58,0.21,0.92,0.28c0.34,0.07,0.68,0.1,1.03,0.12
			c0.35,0.01,0.69,0.02,1.01,0.02c0.35,0,0.71,0,1.1-0.02c0.39-0.01,0.78-0.05,1.18-0.12c0.4-0.07,0.8-0.16,1.19-0.28
			c0.39-0.12,0.78-0.3,1.15-0.55c0.21-0.15,0.38-0.31,0.49-0.46c0.11-0.15,0.24-0.39,0.39-0.7l2.99-6.09
			c0.25-0.51,0.39-0.92,0.43-1.23c0.04-0.31-0.07-0.54-0.31-0.69c-0.4-0.18-0.88-0.33-1.46-0.45
			C101.76,76.68,101.14,76.61,100.48,76.61z"/>
		<path d="M128.14,71.85c-0.44,0-0.88,0.02-1.32,0.05c-0.44,0.03-0.87,0.11-1.27,0.23c-0.41,0.12-0.78,0.3-1.12,0.53
			c-0.34,0.23-0.62,0.54-0.83,0.91l-4.74,9.63c-0.2,0.4-0.36,0.78-0.48,1.16c-0.13,0.38-0.19,0.71-0.19,1.01
			c0,0.3,0.08,0.54,0.23,0.73c0.15,0.19,0.41,0.28,0.78,0.28h12.78l-2.9,5.89h-14.51c-0.69,0-1.35-0.12-1.96-0.36
			c-0.61-0.24-1.12-0.58-1.52-1.01c-0.4-0.43-0.67-0.95-0.8-1.56c-0.13-0.61-0.08-1.26,0.15-1.97l7.96-16.19
			c0.38-0.73,0.94-1.4,1.66-2s1.52-1.13,2.37-1.57c0.85-0.44,1.72-0.79,2.61-1.04c0.89-0.25,1.7-0.39,2.42-0.41
			c0.79-0.02,1.59-0.03,2.38-0.03c0.79,0,1.59,0,2.4,0c1.59,0,3.19,0.01,4.79,0.02c1.61,0.01,3.23,0.02,4.86,0.02l-2.82,5.73
			L128.14,71.85z"/>
		<path d="M139.8,92.28h-6.77l13.44-27.35h6.77L139.8,92.28z"/>
		<path d="M169.04,72.14c0.69,0,1.17,0.17,1.45,0.5c0.27,0.33,0.4,0.76,0.38,1.29s-0.15,1.12-0.4,1.79
			c-0.24,0.66-0.52,1.31-0.84,1.95l-0.59,1.19c-0.18,0.38-0.43,0.87-0.72,1.47c-0.3,0.61-0.71,1.42-1.22,2.45
			c-0.52,1.03-1.15,2.31-1.91,3.86c-0.76,1.55-1.68,3.42-2.77,5.63h-13.71c-1.15,0-1.99-0.12-2.5-0.36
			c-0.51-0.24-0.8-0.62-0.86-1.13c-0.06-0.51,0.07-1.15,0.38-1.94c0.32-0.78,0.74-1.72,1.27-2.8c0.28-0.57,0.57-1.15,0.85-1.74
			c0.29-0.58,0.57-1.13,0.84-1.64c0.32-0.6,0.71-1.11,1.18-1.56c0.47-0.44,0.98-0.8,1.53-1.08c0.55-0.28,1.14-0.49,1.76-0.63
			c0.62-0.14,1.26-0.21,1.9-0.21c1.36,0,2.64,0,3.85,0s2.49,0.01,3.84,0.03l0.8-1.62c0.1-0.2,0.11-0.36,0.03-0.48
			c-0.08-0.12-0.22-0.2-0.41-0.25c-0.2-0.04-0.44-0.07-0.72-0.08c-0.28-0.01-0.57-0.02-0.87-0.02h-9.4l2.28-4.64H169.04z
			 M160.56,83.83h-5.53c-0.48,0-0.86,0.12-1.14,0.35c-0.28,0.23-0.54,0.6-0.79,1.11l-0.6,1.23c-0.12,0.24-0.18,0.51-0.18,0.79
			c0,0.29,0.26,0.43,0.79,0.43c0.46,0,1.04,0,1.75,0c0.7,0,1.39-0.01,2.07-0.03c0.44,0,0.8,0,1.1-0.02
			c0.29-0.01,0.51-0.02,0.65-0.02L160.56,83.83z"/>
		<path d="M166.78,92.28l2.54-5.17h11.05c1.17,0,1.98-0.45,2.43-1.36c0.18-0.38,0.22-0.71,0.11-0.99c-0.11-0.29-0.46-0.43-1.03-0.43
			h-7.39c-0.53,0-0.98-0.09-1.35-0.28s-0.65-0.44-0.84-0.75c-0.19-0.31-0.29-0.67-0.28-1.08c0-0.41,0.12-0.83,0.33-1.27l2.86-5.83
			c0.43-0.68,0.95-1.23,1.58-1.62c0.62-0.4,1.29-0.69,2.01-0.89s1.46-0.33,2.21-0.38c0.75-0.05,1.47-0.08,2.14-0.08h13.12
			l-2.28,4.64h-12.71c-0.37,0-0.65,0.1-0.84,0.3c-0.19,0.2-0.37,0.47-0.55,0.83c-0.16,0.33-0.28,0.6-0.34,0.79s-0.06,0.36,0.01,0.48
			c0.07,0.12,0.22,0.2,0.45,0.25c0.23,0.04,0.57,0.07,1.01,0.07h6.65c0.51,0,1.03,0.03,1.55,0.08c0.53,0.05,0.98,0.18,1.37,0.38
			c0.39,0.2,0.66,0.48,0.83,0.84s0.16,0.86-0.03,1.47c-0.07,0.24-0.18,0.52-0.32,0.83c-0.14,0.31-0.27,0.58-0.39,0.83l-2.28,4.64
			c-0.31,0.64-0.76,1.19-1.35,1.66c-0.58,0.46-1.28,0.84-2.08,1.14c-0.8,0.3-1.7,0.53-2.69,0.68c-0.99,0.15-2.05,0.23-3.18,0.23
			H166.78z"/>
		<path d="M214.01,84.66h-13.13h-0.14c-0.13,0.26-0.24,0.54-0.32,0.83c-0.08,0.29-0.11,0.55-0.09,0.79c0.02,0.24,0.09,0.44,0.22,0.6
			c0.13,0.16,0.36,0.23,0.68,0.23h11.05l-2.54,5.17h-11.88c-0.58,0-1.24-0.02-1.99-0.05s-1.43-0.15-2.04-0.35s-1.08-0.5-1.41-0.91
			c-0.33-0.41-0.35-1-0.07-1.77l7.05-14.34c0.06-0.13,0.21-0.35,0.42-0.65c0.21-0.3,0.55-0.61,0.99-0.93
			c0.45-0.32,1.01-0.6,1.7-0.83c0.69-0.23,1.54-0.35,2.56-0.35h10.8c0.48,0,0.96,0.05,1.41,0.15s0.84,0.27,1.13,0.51
			c0.3,0.24,0.48,0.56,0.56,0.94c0.08,0.39-0.03,0.88-0.33,1.47L214.01,84.66z M202.94,80.62h5.5c0.48,0,0.86-0.12,1.13-0.35
			c0.27-0.23,0.54-0.6,0.79-1.11l0.57-1.16c0.12-0.24,0.18-0.51,0.18-0.79s-0.26-0.43-0.79-0.43h-5.5L202.94,80.62z"/>
		<path d="M214.38,92.28l2.54-5.17h11.05c1.17,0,1.98-0.45,2.43-1.36c0.18-0.38,0.22-0.71,0.11-0.99c-0.11-0.29-0.46-0.43-1.03-0.43
			h-7.39c-0.53,0-0.98-0.09-1.35-0.28s-0.65-0.44-0.84-0.75c-0.19-0.31-0.29-0.67-0.28-1.08c0-0.41,0.12-0.83,0.33-1.27l2.86-5.83
			c0.43-0.68,0.95-1.23,1.58-1.62c0.62-0.4,1.29-0.69,2.01-0.89s1.46-0.33,2.21-0.38c0.75-0.05,1.47-0.08,2.14-0.08h13.12
			l-2.28,4.64h-12.71c-0.37,0-0.65,0.1-0.84,0.3c-0.19,0.2-0.37,0.47-0.55,0.83c-0.16,0.33-0.28,0.6-0.34,0.79s-0.06,0.36,0.01,0.48
			c0.07,0.12,0.22,0.2,0.45,0.25c0.23,0.04,0.57,0.07,1.01,0.07h6.65c0.51,0,1.03,0.03,1.55,0.08c0.53,0.05,0.98,0.18,1.37,0.38
			c0.39,0.2,0.66,0.48,0.83,0.84s0.16,0.86-0.03,1.47c-0.07,0.24-0.18,0.52-0.32,0.83c-0.14,0.31-0.27,0.58-0.39,0.83L236,88.57
			c-0.31,0.64-0.76,1.19-1.35,1.66c-0.58,0.46-1.28,0.84-2.08,1.14c-0.8,0.3-1.7,0.53-2.69,0.68c-0.99,0.15-2.05,0.23-3.18,0.23
			H214.38z"/>
	</g>
	<polygon points="124.61,31.73 153.78,30.59 149.15,37.1 121.28,37.36 	"/>
	<polygon points="50.4,46.49 63.74,42.62 64.58,44.83 51.74,47.6 	"/>
	<path d="M67.86,41.75c0,0,21.44-4.99,21.87-4.94l1.48,3.39l-22.41,3.98L67.86,41.75z"/>
	<path d="M93.01,35.88c0,0,27.02-3.92,28.08-3.78l-2.11,5.32c0,0-24.92,2.61-25.03,2.73C93.85,40.26,93.01,35.88,93.01,35.88z"/>
	<path class="st3" d="M153.85,38.01l6.95-7.48c0,0,21.98,1.59,25.82,4.68l-11.24,6.46C175.38,41.67,158.47,38.25,153.85,38.01z"/>
	<path class="st3" d="M195.54,36.64c0,0,27.83,8.18,39.55,29.55l-31.7-7.9c0,0-4.16-7.45-21.79-15.32L195.54,36.64z"/>
	<polygon class="st1" points="136.26,97.78 126.83,97.78 151.5,56 160.94,56 	"/>
	<polygon points="134.76,90.38 166.39,22.59 140.59,90.38 	"/>
	<ellipse class="st1" cx="136.44" cy="91.97" rx="3.88" ry="4"/>
	<circle cx="138.34" cy="88.82" r="3.58"/>
	<g>
		<rect x="8.59" y="99.75" width="232.78" height="22.58"/>
		<rect x="8.59" y="99.75" class="st1" width="6" height="5.75"/>
		<rect x="14.6" y="105.5" class="st1" width="6" height="5.75"/>
		<rect x="26.6" y="105.5" class="st1" width="6" height="5.75"/>
		<rect x="20.6" y="99.75" class="st1" width="6" height="5.75"/>
		<rect x="32.6" y="99.75" class="st1" width="6" height="5.75"/>
		<rect x="8.59" y="110.91" class="st1" width="6" height="5.75"/>
		<rect x="14.6" y="116.66" class="st1" width="6" height="5.75"/>
		<rect x="26.6" y="116.66" class="st1" width="6" height="5.75"/>
		<rect x="20.6" y="110.91" class="st1" width="6" height="5.75"/>
		<rect x="32.6" y="110.91" class="st1" width="6" height="5.75"/>
		<rect x="211.37" y="99.75" class="st1" width="6" height="5.75"/>
		<rect x="217.37" y="105.5" class="st1" width="6" height="5.75"/>
		<rect x="223.37" y="99.75" class="st1" width="6" height="5.75"/>
		<rect x="229.37" y="105.5" class="st1" width="6" height="5.67"/>
		<rect x="235.37" y="99.75" class="st1" width="6" height="5.75"/>
		<rect x="211.37" y="110.91" class="st1" width="6" height="5.75"/>
		<rect x="217.37" y="116.66" class="st1" width="6" height="5.75"/>
		<rect x="223.37" y="110.91" class="st1" width="6" height="5.75"/>
		<rect x="229.37" y="116.28" class="st1" width="6" height="6.04"/>
		<rect x="235.37" y="110.91" class="st1" width="6" height="5.75"/>
		<g>
			<path class="st5" d="M63.18,102.42h2.98l-4,17.54h-2.98L63.18,102.42z M64.31,102.42h6.95c2.3,0,4.19,0.28,5.66,0.83
				c1.47,0.56,2.5,1.3,3.09,2.23c0.59,0.93,0.78,1.96,0.56,3.09c-0.24,1.28-0.89,2.42-1.95,3.43c-1.05,1.01-2.47,1.81-4.24,2.4
				c-1.77,0.59-3.8,0.89-6.08,0.91h-7.39L64.31,102.42z M68.93,113.35c2.33,0,4.25-0.43,5.75-1.3c1.5-0.87,2.37-2.02,2.58-3.47
				c0.22-1.33-0.26-2.36-1.44-3.09c-1.18-0.73-2.8-1.1-4.86-1.1H64.6l-2.37,8.96H68.93z"/>
			<path class="st5" d="M96.23,102.42h3.89l5.39,17.54h-3.42l-1.13-3.81H88.99l-2.84,3.81h-3.53L96.23,102.42z M100.34,114.08
				l-2.69-9.44l-7.13,9.44H100.34z"/>
			<path class="st5" d="M117.92,102.42h2.98l-4,17.54h-2.99L117.92,102.42z M117.23,110.25H124c3.18,0,5.57,0.36,7.17,1.07
				c1.6,0.71,2.34,1.81,2.22,3.29c-0.07,0.93-0.56,1.8-1.46,2.62c-0.9,0.83-2.13,1.49-3.69,1.98c-1.56,0.5-3.35,0.75-5.37,0.75
				h-8.12L117.23,110.25z M122.83,118c2.01,0,3.65-0.26,4.91-0.78c1.26-0.52,2.05-1.29,2.37-2.3c0.27-0.88,0.01-1.59-0.78-2.15
				c-0.79-0.56-2.12-0.83-3.99-0.83h-7.9L116.1,118H122.83z M119.05,102.42h7.97c2.89,0,4.87,0.47,5.95,1.4
				c1.08,0.93,1.42,2.11,1.04,3.52c-0.44,1.41-1.77,2.49-4,3.22c-2.23,0.73-5,1.1-8.3,1.1h-5.06L119.05,102.42z M124.8,110.25
				c1.72,0,3.11-0.25,4.15-0.74c1.04-0.5,1.71-1.2,2-2.11c0.32-0.96,0.08-1.7-0.69-2.22c-0.78-0.52-2.03-0.78-3.75-0.78h-7.06
				l-0.8,5.86H124.8z"/>
			<path class="st5" d="M145.25,102.42h2.98l-3.53,15.47h13.25l-0.47,2.07h-16.23L145.25,102.42z"/>
			<path class="st5" d="M170.48,119.26c-1.75-0.79-2.98-1.87-3.71-3.23c-0.73-1.36-0.87-2.89-0.44-4.57
				c0.41-1.62,1.33-3.11,2.75-4.49s3.21-2.48,5.37-3.31c2.16-0.82,4.49-1.24,6.99-1.24c2.45,0,4.54,0.39,6.26,1.16
				c1.72,0.77,2.95,1.85,3.68,3.22c0.73,1.37,0.89,2.92,0.47,4.66c-0.41,1.63-1.35,3.13-2.8,4.51c-1.46,1.37-3.26,2.46-5.41,3.27
				c-2.15,0.81-4.43,1.21-6.86,1.21C174.32,120.45,172.22,120.05,170.48,119.26z M182.56,117.52c1.6-0.64,2.92-1.5,3.95-2.58
				c1.03-1.08,1.72-2.24,2.06-3.48c0.34-1.33,0.27-2.53-0.22-3.6c-0.49-1.07-1.38-1.91-2.68-2.54c-1.3-0.62-2.93-0.93-4.89-0.93
				c-1.82,0-3.53,0.33-5.13,1c-1.6,0.67-2.94,1.54-4,2.62c-1.07,1.09-1.76,2.23-2.08,3.45c-0.39,1.38-0.33,2.6,0.16,3.66
				c0.5,1.06,1.39,1.88,2.69,2.47c1.3,0.59,2.91,0.88,4.82,0.88C179.19,118.48,180.96,118.16,182.56,117.52z"/>
		</g>
	</g>
</g>
</svg>
