<?xml version="1.0" encoding="utf-8"?>
<!-- Generator: Adobe Illustrator 24.3.0, SVG Export Plug-In . SVG Version: 6.00 Build 0)  -->
<svg version="1.1" id="Capa_1" xmlns="http://www.w3.org/2000/svg" xmlns:xlink="http://www.w3.org/1999/xlink" x="0px" y="0px"
	 viewBox="0 0 300 300" style="enable-background:new 0 0 300 300;" xml:space="preserve">
<style type="text/css">
	.st0{fill:#E20613;}
	.st1{fill:#E10A19;}
	.st2{fill:#FFFFFF;}
	.st3{opacity:0.76;}
	.st4{display:none;opacity:0.54;}
	.st5{fill:#C60C1E;}
	.st6{fill:#FFFFFF;stroke:#0C0C0C;stroke-width:4;stroke-miterlimit:10;}
	.st7{fill:none;}
	.st8{fill:#C60C1E;stroke:#F2F2F2;stroke-width:0.75;stroke-miterlimit:10;}
	.st9{fill:none;stroke:#000000;stroke-miterlimit:10;}
	.st10{fill:#030306;}
	.st11{fill:#030305;}
	.st12{fill:#040305;}
	.st13{fill:#FFFFFF;stroke:#FFFFFF;stroke-width:3;stroke-miterlimit:10;}
	.st14{fill:#25D366;stroke:#F2F2F2;stroke-width:5;stroke-miterlimit:10;}
	.st15{fill:none;stroke:#FFFFFF;stroke-width:3;stroke-miterlimit:10;}
	.st16{fill:#FFFFFF;stroke:#000000;stroke-miterlimit:10;}
	.st17{fill:none;stroke:#000000;stroke-width:3;stroke-miterlimit:10;}
	.st18{fill-opacity:0.2;}
	.st19{fill:url(#SVGID_1_);}
	.st20{fill:url(#SVGID_2_);}
	.st21{fill-rule:evenodd;clip-rule:evenodd;fill:#FFFFFF;}
	.st22{fill:url(#SVGID_3_);}
	.st23{fill:url(#SVGID_4_);}
	.st24{fill:url(#SVGID_5_);}
	.st25{fill:url(#SVGID_6_);}
	.st26{fill:url(#SVGID_7_);}
	.st27{fill:url(#SVGID_8_);}
	.st28{fill:url(#SVGID_9_);}
	.st29{fill:url(#SVGID_10_);}
	.st30{fill:url(#SVGID_11_);}
	.st31{fill:url(#SVGID_12_);}
	.st32{fill:url(#SVGID_13_);}
	.st33{fill:url(#SVGID_14_);}
	.st34{fill:#444444;}
	.st35{fill:url(#SVGID_15_);}
	.st36{fill:url(#SVGID_16_);}
	.st37{fill:url(#SVGID_17_);}
	.st38{fill:url(#SVGID_18_);}
	.st39{opacity:0.93;fill:#FFFFFF;}
	.st40{fill:#B3B3B3;}
	.st41{opacity:0.94;fill:#C60C1E;}
	.st42{opacity:0.94;fill:#1E1E1E;}
	.st43{opacity:0.49;fill:#1E1E1E;}
	.st44{fill:#1E1E1E;}
	.st45{fill:#231F20;stroke:#000000;stroke-width:2;stroke-miterlimit:10;}
</style>
<path class="st44" d="M150.27,30.93c-28.85,0-52.24,23.39-52.24,52.24s23.39,52.24,52.24,52.24s52.24-23.39,52.24-52.24l0,0
	C202.48,54.33,179.11,30.96,150.27,30.93z M150.27,123.81c-22.44,0-40.63-18.19-40.63-40.63s18.19-40.63,40.63-40.63
	c22.44,0,40.63,18.19,40.63,40.63l0,0C190.88,105.6,172.7,123.78,150.27,123.81L150.27,123.81z"/>
<path class="st44" d="M270.36,156.62c-3.8-7.55-10.54-10.87-18.91-9.84c-3.59,0.43-6.03,0.54-8.7-2.77
	c-4.62-5.82-11.09-7.34-18.32-5c-2.23,0.71-3.91,1.85-6.79-0.27c-10.05-7.45-15.22-6.74-24.24,2.17c-2.83,2.77-6.2,5.22-8.26,8.42
	c-9.51,14.57-23.64,15.33-38.64,13.26c-4.73-0.65-9.4-1.85-13.97-3.21c-22.88-7.01-42.83-0.6-60.98,13.42
	c-3.97,3.04-7.39,4.78-12.66,4.95c-11.52,0.33-18.04,8.97-22.72,17.99c-4.35,8.42,0.38,15.49,6.68,21.69
	c12.77,12.34,25.44,24.84,37.72,37.66c6.25,6.47,13.32,11.03,21.63,6.58c8.8-4.73,17.99-10.98,17.83-22.66
	c-0.11-7.34,3.1-8.64,8.91-8.59c12.12,0.05,24.24,0,36.41,0v-0.05c11.85,0,23.7,0.05,35.54,0c8.75-0.05,16.9-2.45,23.21-8.64
	c14.51-14.18,28.86-28.59,43.04-43.1C273.4,172.17,274.33,164.45,270.36,156.62z M215.9,157.17c3.32-2.61,5.82-6.2,9.13-8.75
	c4.73-3.59,12.66-1.09,13.1,3.8c0.11,2.28-1.63,3.42-2.99,4.78c-4.13,4.18-8.42,8.26-12.39,12.66c-2.77,3.04-3.97,2.01-7.07-0.22
	C208.94,164.61,210.52,161.41,215.9,157.17z M202.26,144.34c2.88-2.77,6.03-2.83,8.91,0c3.59,3.48,0,5.38-1.96,7.45
	c-6.36,6.58-11.96,14.84-24.51,9.84C190.79,155.54,196.44,149.88,202.26,144.34z M99.65,253.42c-4.24,2.99-8.37,0.22-11.85-3.26
	c-13.26-13.42-26.69-26.63-39.95-40.05c-6.85-6.9-6.41-10,1.85-18.21c7.77-7.66,10.87-8.04,17.5-1.41
	c13.37,13.26,26.69,26.58,39.95,39.95c2.17,2.17,4.73,4.18,4.67,7.88C110.79,245.65,104.98,249.61,99.65,253.42z M261.82,171.57
	c-3.15,3.97-6.96,7.34-10.54,10.92c-9.95,10-20,19.84-29.84,29.95c-6.3,6.47-13.7,9.51-22.66,9.35c-11.58-0.16-23.1-0.05-34.67-0.05
	c-10.98,0-21.96,0-32.99,0c-1.96,0-4.4-0.65-5.82,0.27c-10.38,6.36-15.65-1.3-21.69-7.39c-9.08-9.24-18.26-18.42-27.5-27.5
	c-2.17-2.12-4.13-3.86-0.65-6.58c13.26-10.43,28.15-19.08,45-14.67c24.51,6.41,49.13,5.38,73.81,5.6
	c12.5,0.11,17.77,3.21,17.66,10.6c-0.05,7.28-5.22,10.22-17.99,10.22c-9.02,0-18.04-0.05-27.07,0.05c-3.32,0-7.61-0.54-7.5,4.4
	c0.11,4.13,3.91,4.08,7.07,4.08c11.58,0,23.1,0.05,34.67,0c8.8-0.05,14.78-4.46,18.48-12.39c6.36-13.75,18.8-21.96,29.35-31.85
	c3.59-3.37,8.64-1.74,12.12,2.01C265.03,162.6,265.19,167.33,261.82,171.57z"/>
<polygon class="st44" points="43.08,196.22 56.78,183.6 63.71,183.6 116.08,236.2 111.82,248.86 99.3,257.46 84.66,254.69 
	37.75,207.1 "/>
<path class="st5" d="M116.8,252.27l-13.62,13.62c-4.24,4.24-11.12,4.24-15.36,0l-57.38-57.38c-4.24-4.24-4.24-11.12,0-15.36
	l13.62-13.62c4.24-4.24,11.12-4.24,15.36,0l57.38,57.38C121.04,241.15,121.04,248.03,116.8,252.27z"/>
<circle class="st44" cx="149.15" cy="82.59" r="43.08"/>
<path class="st2" d="M153.61,79.29c-0.52-0.2-1.01-0.38-1.43-0.57c-0.49-0.21-1.08-0.44-1.73-0.69c-3.12-1.18-4.92-2.11-4.92-3.33
	c0-0.35,0.56-1.29,1.92-1.98c1.01-0.51,4.69-1.91,9.48,1.61c2.12,1.54,5.08,1.07,6.61-1.05c1.52-2.1,1.07-5.03-1-6.58
	c-2.25-1.68-4.82-2.91-7.54-3.61v-3.6c-0.03-2.62-2.17-4.71-4.78-4.69c-2.58,0.02-4.66,2.11-4.69,4.69v3.81
	c-0.81,0.26-1.59,0.58-2.35,0.96c-4.39,2.22-7.12,6.21-7.12,10.43c0,8,7.45,10.83,11.03,12.19c0.47,0.18,0.91,0.34,1.27,0.5
	c0.55,0.24,1.19,0.49,1.88,0.75c3.66,1.4,4.77,2.16,4.77,3.27c0,0.35-0.56,1.29-1.93,1.97c-1.01,0.52-4.69,1.91-9.48-1.61
	c-2.11-1.55-5.07-1.1-6.62,1.01c-1.55,2.11-1.1,5.07,1.01,6.62c2.26,1.67,4.82,2.88,7.54,3.56v3.88c0.03,2.62,2.17,4.71,4.78,4.69
	c2.58-0.02,4.66-2.11,4.69-4.69v-4.07c0.81-0.25,1.59-0.57,2.35-0.94c4.39-2.22,7.12-6.22,7.12-10.43
	C164.47,83.44,157.14,80.64,153.61,79.29z"/>
</svg>
