<?xml version="1.0" encoding="utf-8"?>
<!-- Generator: Adobe Illustrator 24.3.0, SVG Export Plug-In . SVG Version: 6.00 Build 0)  -->
<svg version="1.1" id="Capa_1" xmlns="http://www.w3.org/2000/svg" xmlns:xlink="http://www.w3.org/1999/xlink" x="0px" y="0px"
	 viewBox="0 0 300 300" style="enable-background:new 0 0 300 300;" xml:space="preserve">
<style type="text/css">
	.st0{fill:#E20613;}
	.st1{fill:#E10A19;}
	.st2{fill:#FFFFFF;}
	.st3{opacity:0.76;}
	.st4{display:none;opacity:0.54;}
	.st5{fill:#C60C1E;}
	.st6{fill:#FFFFFF;stroke:#0C0C0C;stroke-width:4;stroke-miterlimit:10;}
	.st7{fill:none;}
	.st8{fill:#C60C1E;stroke:#F2F2F2;stroke-width:0.75;stroke-miterlimit:10;}
	.st9{fill:none;stroke:#000000;stroke-miterlimit:10;}
	.st10{fill:#030306;}
	.st11{fill:#030305;}
	.st12{fill:#040305;}
	.st13{fill:#FFFFFF;stroke:#FFFFFF;stroke-width:3;stroke-miterlimit:10;}
	.st14{fill:#25D366;stroke:#F2F2F2;stroke-width:5;stroke-miterlimit:10;}
	.st15{fill:none;stroke:#FFFFFF;stroke-width:3;stroke-miterlimit:10;}
	.st16{fill:#FFFFFF;stroke:#000000;stroke-miterlimit:10;}
	.st17{fill:none;stroke:#000000;stroke-width:3;stroke-miterlimit:10;}
	.st18{fill-opacity:0.2;}
	.st19{fill:url(#SVGID_1_);}
	.st20{fill:url(#SVGID_2_);}
	.st21{fill-rule:evenodd;clip-rule:evenodd;fill:#FFFFFF;}
	.st22{fill:url(#SVGID_3_);}
	.st23{fill:url(#SVGID_4_);}
	.st24{fill:url(#SVGID_5_);}
	.st25{fill:url(#SVGID_6_);}
	.st26{fill:url(#SVGID_7_);}
	.st27{fill:url(#SVGID_8_);}
	.st28{fill:url(#SVGID_9_);}
	.st29{fill:url(#SVGID_10_);}
	.st30{fill:url(#SVGID_11_);}
	.st31{fill:url(#SVGID_12_);}
	.st32{fill:url(#SVGID_13_);}
	.st33{fill:url(#SVGID_14_);}
	.st34{fill:#444444;}
	.st35{fill:url(#SVGID_15_);}
	.st36{fill:url(#SVGID_16_);}
	.st37{fill:url(#SVGID_17_);}
	.st38{fill:url(#SVGID_18_);}
	.st39{opacity:0.93;fill:#FFFFFF;}
	.st40{fill:#B3B3B3;}
	.st41{opacity:0.94;fill:#C60C1E;}
	.st42{opacity:0.94;fill:#1E1E1E;}
	.st43{opacity:0.49;fill:#1E1E1E;}
	.st44{fill:#1E1E1E;}
	.st45{fill:#231F20;stroke:#000000;stroke-width:2;stroke-miterlimit:10;}
</style>
<path class="st44" d="M191.77,184.51l25.89-45.08c14.17-24.19,14.17-54.14,0-78.32c-21.68-37.43-69.6-50.2-107.03-28.51
	C98.8,39.45,88.97,49.28,82.12,61.11c-14.17,24.19-14.17,54.14,0,78.32l25.89,44.86c-43.26,5.33-85.89,19.07-85.89,45.72
	c0,32.93,66.28,47.95,127.87,47.95s127.87-15.03,127.87-47.95C277.87,203.37,235.25,189.63,191.77,184.51z M100.66,71.98
	c14.92-27.66,49.43-38,77.09-23.08s38,49.43,23.08,77.09c-0.51,0.94-1.04,1.87-1.6,2.79L150,214.03l-49.23-85.25
	C90.55,111.24,90.5,89.56,100.66,71.98z M150,256.65c-70.33,0-106.56-18.65-106.56-26.64c0-5.65,22.91-20.78,76.51-25.36
	l14.39,24.83c5.03,8.65,16.11,11.59,24.76,6.57c2.72-1.58,4.98-3.84,6.57-6.57l14.39-24.83c53.6,4.58,76.51,20.03,76.51,25.36
	C256.56,238,220.33,256.65,150,256.65z"/>
<circle class="st5" cx="150" cy="96.81" r="21.31"/>
<polygon class="st44" points="81.98,204.65 122.5,201.5 154.46,233 182.5,197.5 262.5,218.5 254.5,250.5 150,271.36 67.5,258.5 
	37.5,238.5 40.5,219.5 "/>
</svg>
