<?xml version="1.0" encoding="utf-8"?>
<!-- Generator: Adobe Illustrator 24.3.0, SVG Export Plug-In . SVG Version: 6.00 Build 0)  -->
<svg version="1.1" id="Capa_1" xmlns="http://www.w3.org/2000/svg" xmlns:xlink="http://www.w3.org/1999/xlink" x="0px" y="0px"
	 viewBox="0 0 300 300" style="enable-background:new 0 0 300 300;" xml:space="preserve">
<style type="text/css">
	.st0{fill:#E20613;}
	.st1{fill:#E10A19;}
	.st2{fill:#FFFFFF;}
	.st3{opacity:0.76;}
	.st4{display:none;opacity:0.54;}
	.st5{fill:#C60C1E;}
	.st6{fill:#FFFFFF;stroke:#0C0C0C;stroke-width:4;stroke-miterlimit:10;}
	.st7{fill:none;}
	.st8{fill:#C60C1E;stroke:#F2F2F2;stroke-width:0.75;stroke-miterlimit:10;}
	.st9{fill:none;stroke:#000000;stroke-miterlimit:10;}
	.st10{fill:#030306;}
	.st11{fill:#030305;}
	.st12{fill:#040305;}
	.st13{fill:#FFFFFF;stroke:#FFFFFF;stroke-width:3;stroke-miterlimit:10;}
	.st14{fill:#25D366;stroke:#F2F2F2;stroke-width:5;stroke-miterlimit:10;}
	.st15{fill:none;stroke:#FFFFFF;stroke-width:3;stroke-miterlimit:10;}
	.st16{fill:#FFFFFF;stroke:#000000;stroke-miterlimit:10;}
	.st17{fill:none;stroke:#000000;stroke-width:3;stroke-miterlimit:10;}
	.st18{fill-opacity:0.2;}
	.st19{fill:url(#SVGID_1_);}
	.st20{fill:url(#SVGID_2_);}
	.st21{fill-rule:evenodd;clip-rule:evenodd;fill:#FFFFFF;}
	.st22{fill:url(#SVGID_3_);}
	.st23{fill:url(#SVGID_4_);}
	.st24{fill:url(#SVGID_5_);}
	.st25{fill:url(#SVGID_6_);}
	.st26{fill:url(#SVGID_7_);}
	.st27{fill:url(#SVGID_8_);}
	.st28{fill:url(#SVGID_9_);}
	.st29{fill:url(#SVGID_10_);}
	.st30{fill:url(#SVGID_11_);}
	.st31{fill:url(#SVGID_12_);}
	.st32{fill:url(#SVGID_13_);}
	.st33{fill:url(#SVGID_14_);}
	.st34{fill:#444444;}
	.st35{fill:url(#SVGID_15_);}
	.st36{fill:url(#SVGID_16_);}
	.st37{fill:url(#SVGID_17_);}
	.st38{fill:url(#SVGID_18_);}
	.st39{opacity:0.93;fill:#FFFFFF;}
	.st40{fill:#B3B3B3;}
	.st41{opacity:0.94;fill:#C60C1E;}
	.st42{opacity:0.94;fill:#1E1E1E;}
	.st43{opacity:0.49;fill:#1E1E1E;}
	.st44{fill:#1E1E1E;}
	.st45{fill:#231F20;stroke:#000000;stroke-width:2;stroke-miterlimit:10;}
</style>
<g>
	<path class="st44" d="M150,30.5c-50.27,0-90.66,40.38-90.66,90.66s40.38,90.66,90.66,90.66s90.66-40.38,90.66-90.66
		S200.27,30.5,150,30.5z M150,46.98c23.08,0,44.5,10.71,57.69,28.02c-37.91-7.42-77.47-7.42-115.38,0
		C106.32,57.7,126.92,46.98,150,46.98z M75.83,122.8c22.25,14.01,37.09,37.91,40.38,64.28C92.31,174.72,76.65,150.82,75.83,122.8z
		 M150,145.88c-14.01,0-24.72-10.71-24.72-24.72S135.99,96.43,150,96.43s24.72,10.71,24.72,24.72S164.01,145.88,150,145.88z
		 M183.79,187.09c3.3-26.37,18.13-50.27,40.38-64.28C223.35,150.82,207.69,174.72,183.79,187.09z"/>
</g>
<path class="st5" d="M215.93,229.12l-12.36-14.83c-15.66,9.07-33.79,14.01-53.57,14.01s-37.91-4.94-53.57-14.83l-12.36,15.66
	c-6.59,7.42-7.42,17.31-3.3,26.37c4.12,9.07,12.36,14.01,22.25,14.01h94.78c9.89,0,18.13-5.77,22.25-14.01
	C224.17,247.25,222.52,236.53,215.93,229.12L215.93,229.12z"/>
</svg>
